<mxfile host="app.diagrams.net" modified="2024-03-02T17:50:31.738Z" agent="Mozilla/5.0 (Windows NT 10.0; Win64; x64) AppleWebKit/537.36 (KHTML, like Gecko) Chrome/122.0.0.0 Safari/537.36" etag="7xmC77039ZUmsoDB-hHO" version="24.0.1" type="device">
  <diagram name="1 oldal" id="5f3HVo8hbHReEV7IO18l">
    <mxGraphModel dx="2261" dy="709" grid="1" gridSize="10" guides="1" tooltips="1" connect="1" arrows="1" fold="1" page="1" pageScale="1" pageWidth="827" pageHeight="1169" math="0" shadow="0">
      <root>
        <mxCell id="0" />
        <mxCell id="1" parent="0" />
        <mxCell id="JaL8_G9iudTZzOKIj-7T-1" value="" style="group" parent="1" vertex="1" connectable="0">
          <mxGeometry x="100" y="120" width="480" height="380" as="geometry" />
        </mxCell>
        <mxCell id="JaL8_G9iudTZzOKIj-7T-2" value="" style="html=1;dashed=0;whitespace=wrap;rounded=0;sketch=0;strokeColor=#000000;align=left;" parent="JaL8_G9iudTZzOKIj-7T-1" vertex="1">
          <mxGeometry y="-12.22" width="480" height="392.22" as="geometry" />
        </mxCell>
        <mxCell id="JaL8_G9iudTZzOKIj-7T-3" value="3." style="text;html=1;resizable=0;autosize=1;align=center;verticalAlign=middle;points=[];fillColor=none;rounded=0;sketch=0;strokeColor=#000000;" parent="JaL8_G9iudTZzOKIj-7T-1" vertex="1">
          <mxGeometry y="-12.216111111111115" width="30" height="30" as="geometry" />
        </mxCell>
        <mxCell id="JaL8_G9iudTZzOKIj-7T-4" value="" style="rounded=0;whiteSpace=wrap;html=1;sketch=0;strokeColor=#000000;align=left;" parent="JaL8_G9iudTZzOKIj-7T-1" vertex="1">
          <mxGeometry x="30" y="-12.22" width="450" height="30" as="geometry" />
        </mxCell>
        <mxCell id="JaL8_G9iudTZzOKIj-7T-5" value="" style="group" parent="JaL8_G9iudTZzOKIj-7T-1" vertex="1" connectable="0">
          <mxGeometry x="40" y="50" width="140" height="90" as="geometry" />
        </mxCell>
        <mxCell id="JaL8_G9iudTZzOKIj-7T-6" value="" style="html=1;dashed=0;whitespace=wrap;rounded=0;sketch=0;strokeColor=#000000;align=left;" parent="JaL8_G9iudTZzOKIj-7T-5" vertex="1">
          <mxGeometry width="140" height="90" as="geometry" />
        </mxCell>
        <mxCell id="JaL8_G9iudTZzOKIj-7T-7" value="3.1" style="text;html=1;resizable=0;autosize=1;align=center;verticalAlign=middle;points=[];fillColor=none;rounded=0;sketch=0;strokeColor=#000000;" parent="JaL8_G9iudTZzOKIj-7T-5" vertex="1">
          <mxGeometry y="0.004999999999999893" width="40" height="30" as="geometry" />
        </mxCell>
        <mxCell id="JaL8_G9iudTZzOKIj-7T-8" value="Regisztrációs adatok&lt;br&gt;megadása" style="text;html=1;resizable=0;autosize=1;align=center;verticalAlign=middle;points=[];fillColor=none;strokeColor=none;rounded=0;sketch=0;" parent="JaL8_G9iudTZzOKIj-7T-5" vertex="1">
          <mxGeometry x="5" y="36" width="130" height="40" as="geometry" />
        </mxCell>
        <mxCell id="JaL8_G9iudTZzOKIj-7T-9" value="" style="rounded=0;whiteSpace=wrap;html=1;sketch=0;strokeColor=#000000;align=left;" parent="JaL8_G9iudTZzOKIj-7T-5" vertex="1">
          <mxGeometry x="40" width="100" height="30" as="geometry" />
        </mxCell>
        <mxCell id="JaL8_G9iudTZzOKIj-7T-10" value="" style="dashed=0;aspect=fixed;verticalLabelPosition=bottom;verticalAlign=top;align=center;shape=mxgraph.gmdl.star;strokeColor=none;fillColor=#737373;shadow=0;sketch=0;" parent="JaL8_G9iudTZzOKIj-7T-5" vertex="1">
          <mxGeometry x="124" y="76" width="10" height="10" as="geometry" />
        </mxCell>
        <mxCell id="JaL8_G9iudTZzOKIj-7T-11" value="" style="endArrow=none;html=1;rounded=0;exitX=0.75;exitY=1;exitDx=0;exitDy=0;entryX=1;entryY=0.75;entryDx=0;entryDy=0;" parent="JaL8_G9iudTZzOKIj-7T-5" source="JaL8_G9iudTZzOKIj-7T-6" target="JaL8_G9iudTZzOKIj-7T-6" edge="1">
          <mxGeometry width="50" height="50" relative="1" as="geometry">
            <mxPoint x="155" y="280" as="sourcePoint" />
            <mxPoint x="190" y="255" as="targetPoint" />
          </mxGeometry>
        </mxCell>
        <mxCell id="JaL8_G9iudTZzOKIj-7T-12" value="Adatkezelő" style="group" parent="JaL8_G9iudTZzOKIj-7T-1" vertex="1" connectable="0">
          <mxGeometry x="40" y="180" width="155" height="100" as="geometry" />
        </mxCell>
        <mxCell id="JaL8_G9iudTZzOKIj-7T-13" value="" style="html=1;dashed=0;whitespace=wrap;rounded=0;sketch=0;strokeColor=#000000;align=left;" parent="JaL8_G9iudTZzOKIj-7T-12" vertex="1">
          <mxGeometry width="140" height="100" as="geometry" />
        </mxCell>
        <mxCell id="JaL8_G9iudTZzOKIj-7T-14" value="3.2" style="text;html=1;resizable=0;autosize=1;align=center;verticalAlign=middle;points=[];fillColor=none;rounded=0;sketch=0;strokeColor=#000000;" parent="JaL8_G9iudTZzOKIj-7T-12" vertex="1">
          <mxGeometry width="40" height="30" as="geometry" />
        </mxCell>
        <mxCell id="JaL8_G9iudTZzOKIj-7T-15" value="Adatok hiánya &lt;br&gt;vagy nem megfelelő &lt;br&gt;megadása" style="text;html=1;resizable=0;autosize=1;align=center;verticalAlign=middle;points=[];fillColor=none;strokeColor=none;rounded=0;sketch=0;" parent="JaL8_G9iudTZzOKIj-7T-12" vertex="1">
          <mxGeometry x="5" y="30" width="130" height="60" as="geometry" />
        </mxCell>
        <mxCell id="JaL8_G9iudTZzOKIj-7T-16" value="" style="rounded=0;whiteSpace=wrap;html=1;sketch=0;strokeColor=#000000;align=left;" parent="JaL8_G9iudTZzOKIj-7T-12" vertex="1">
          <mxGeometry x="40" width="100" height="30" as="geometry" />
        </mxCell>
        <mxCell id="JaL8_G9iudTZzOKIj-7T-17" value="" style="dashed=0;aspect=fixed;verticalLabelPosition=bottom;verticalAlign=top;align=center;shape=mxgraph.gmdl.star;strokeColor=none;fillColor=#737373;shadow=0;sketch=0;" parent="JaL8_G9iudTZzOKIj-7T-12" vertex="1">
          <mxGeometry x="125" y="85" width="10" height="10" as="geometry" />
        </mxCell>
        <mxCell id="JaL8_G9iudTZzOKIj-7T-18" value="" style="endArrow=none;html=1;rounded=0;exitX=0.75;exitY=1;exitDx=0;exitDy=0;entryX=1;entryY=0.75;entryDx=0;entryDy=0;" parent="JaL8_G9iudTZzOKIj-7T-12" source="JaL8_G9iudTZzOKIj-7T-13" target="JaL8_G9iudTZzOKIj-7T-13" edge="1">
          <mxGeometry width="50" height="50" relative="1" as="geometry">
            <mxPoint x="150" y="40" as="sourcePoint" />
            <mxPoint x="200" y="-10" as="targetPoint" />
          </mxGeometry>
        </mxCell>
        <mxCell id="JaL8_G9iudTZzOKIj-7T-19" value="" style="group" parent="JaL8_G9iudTZzOKIj-7T-1" vertex="1" connectable="0">
          <mxGeometry x="269.99999999999994" y="100" width="140.00000000000006" height="80" as="geometry" />
        </mxCell>
        <mxCell id="JaL8_G9iudTZzOKIj-7T-20" value="" style="html=1;dashed=0;whitespace=wrap;rounded=0;sketch=0;strokeColor=#000000;align=left;" parent="JaL8_G9iudTZzOKIj-7T-19" vertex="1">
          <mxGeometry x="-10" y="-10" width="150" height="90" as="geometry" />
        </mxCell>
        <mxCell id="JaL8_G9iudTZzOKIj-7T-21" value="3.3" style="text;html=1;resizable=0;autosize=1;align=center;verticalAlign=middle;points=[];fillColor=none;rounded=0;sketch=0;strokeColor=#000000;" parent="JaL8_G9iudTZzOKIj-7T-19" vertex="1">
          <mxGeometry x="-10" y="-10" width="40" height="30" as="geometry" />
        </mxCell>
        <mxCell id="JaL8_G9iudTZzOKIj-7T-22" value="Felhasználó&lt;br&gt;létrehozása &lt;br&gt;és átirányítása" style="text;html=1;resizable=0;autosize=1;align=center;verticalAlign=middle;points=[];fillColor=none;strokeColor=none;rounded=0;sketch=0;" parent="JaL8_G9iudTZzOKIj-7T-19" vertex="1">
          <mxGeometry x="15" y="20" width="100" height="60" as="geometry" />
        </mxCell>
        <mxCell id="JaL8_G9iudTZzOKIj-7T-23" value="" style="rounded=0;whiteSpace=wrap;html=1;sketch=0;strokeColor=#000000;align=left;" parent="JaL8_G9iudTZzOKIj-7T-19" vertex="1">
          <mxGeometry x="30" y="-10" width="110" height="30" as="geometry" />
        </mxCell>
        <mxCell id="JaL8_G9iudTZzOKIj-7T-24" value="" style="dashed=0;aspect=fixed;verticalLabelPosition=bottom;verticalAlign=top;align=center;shape=mxgraph.gmdl.star;strokeColor=none;fillColor=#737373;shadow=0;sketch=0;" parent="JaL8_G9iudTZzOKIj-7T-19" vertex="1">
          <mxGeometry x="125.00000000000006" y="66" width="10" height="10" as="geometry" />
        </mxCell>
        <mxCell id="JaL8_G9iudTZzOKIj-7T-25" value="" style="endArrow=none;html=1;rounded=0;exitX=0.75;exitY=1;exitDx=0;exitDy=0;entryX=1;entryY=0.75;entryDx=0;entryDy=0;" parent="JaL8_G9iudTZzOKIj-7T-19" edge="1">
          <mxGeometry width="50" height="50" relative="1" as="geometry">
            <mxPoint x="105.00000000000006" y="80" as="sourcePoint" />
            <mxPoint x="140.00000000000006" y="55" as="targetPoint" />
          </mxGeometry>
        </mxCell>
        <mxCell id="JaL8_G9iudTZzOKIj-7T-26" value="" style="endArrow=classic;html=1;rounded=0;entryX=0;entryY=0.25;entryDx=0;entryDy=0;" parent="JaL8_G9iudTZzOKIj-7T-1" target="JaL8_G9iudTZzOKIj-7T-20" edge="1">
          <mxGeometry relative="1" as="geometry">
            <mxPoint x="180" y="113" as="sourcePoint" />
            <mxPoint x="260" y="190" as="targetPoint" />
          </mxGeometry>
        </mxCell>
        <mxCell id="JaL8_G9iudTZzOKIj-7T-27" value="Sikeres" style="edgeLabel;resizable=0;html=1;align=center;verticalAlign=middle;" parent="JaL8_G9iudTZzOKIj-7T-26" connectable="0" vertex="1">
          <mxGeometry relative="1" as="geometry">
            <mxPoint y="-9" as="offset" />
          </mxGeometry>
        </mxCell>
        <mxCell id="JaL8_G9iudTZzOKIj-7T-28" value="Admin" style="ellipse;whiteSpace=wrap;html=1;" parent="1" vertex="1">
          <mxGeometry x="-135" y="320" width="80" height="40" as="geometry" />
        </mxCell>
        <mxCell id="JaL8_G9iudTZzOKIj-7T-29" value="Látogató" style="ellipse;whiteSpace=wrap;html=1;" parent="1" vertex="1">
          <mxGeometry x="-140" y="198.75" width="90" height="50" as="geometry" />
        </mxCell>
        <mxCell id="JaL8_G9iudTZzOKIj-7T-30" value="" style="endArrow=classic;html=1;rounded=0;exitX=1;exitY=0.5;exitDx=0;exitDy=0;" parent="1" source="JaL8_G9iudTZzOKIj-7T-29" edge="1">
          <mxGeometry relative="1" as="geometry">
            <mxPoint x="340" y="320" as="sourcePoint" />
            <mxPoint x="140" y="224" as="targetPoint" />
          </mxGeometry>
        </mxCell>
        <mxCell id="JaL8_G9iudTZzOKIj-7T-31" value="Regisztrálási adatok" style="edgeLabel;resizable=0;html=1;align=center;verticalAlign=middle;" parent="JaL8_G9iudTZzOKIj-7T-30" connectable="0" vertex="1">
          <mxGeometry relative="1" as="geometry">
            <mxPoint x="-15" y="-9" as="offset" />
          </mxGeometry>
        </mxCell>
        <mxCell id="JaL8_G9iudTZzOKIj-7T-32" value="" style="endArrow=classic;html=1;rounded=0;exitX=1;exitY=0.5;exitDx=0;exitDy=0;entryX=-0.002;entryY=0.783;entryDx=0;entryDy=0;entryPerimeter=0;" parent="1" target="JaL8_G9iudTZzOKIj-7T-6" edge="1">
          <mxGeometry relative="1" as="geometry">
            <mxPoint x="-55" y="339.5" as="sourcePoint" />
            <mxPoint x="135" y="339.5" as="targetPoint" />
            <Array as="points">
              <mxPoint x="-55" y="240" />
            </Array>
          </mxGeometry>
        </mxCell>
        <mxCell id="JaL8_G9iudTZzOKIj-7T-33" value="Regisztrálási adatok" style="edgeLabel;resizable=0;html=1;align=center;verticalAlign=middle;" parent="JaL8_G9iudTZzOKIj-7T-32" connectable="0" vertex="1">
          <mxGeometry relative="1" as="geometry">
            <mxPoint x="38" y="9" as="offset" />
          </mxGeometry>
        </mxCell>
        <mxCell id="JaL8_G9iudTZzOKIj-7T-34" value="" style="endArrow=classic;html=1;rounded=0;exitX=0.007;exitY=0.897;exitDx=0;exitDy=0;entryX=0.5;entryY=1;entryDx=0;entryDy=0;exitPerimeter=0;" parent="1" source="JaL8_G9iudTZzOKIj-7T-13" target="JaL8_G9iudTZzOKIj-7T-28" edge="1">
          <mxGeometry relative="1" as="geometry">
            <mxPoint x="260" y="320" as="sourcePoint" />
            <mxPoint x="360" y="320" as="targetPoint" />
            <Array as="points">
              <mxPoint x="-95" y="390" />
            </Array>
          </mxGeometry>
        </mxCell>
        <mxCell id="JaL8_G9iudTZzOKIj-7T-35" value="Visszajelzés" style="edgeLabel;resizable=0;html=1;align=center;verticalAlign=middle;" parent="JaL8_G9iudTZzOKIj-7T-34" connectable="0" vertex="1">
          <mxGeometry relative="1" as="geometry">
            <mxPoint y="-10" as="offset" />
          </mxGeometry>
        </mxCell>
        <mxCell id="JaL8_G9iudTZzOKIj-7T-36" value="" style="endArrow=classic;html=1;rounded=0;entryX=0;entryY=0.5;entryDx=0;entryDy=0;" parent="1" target="JaL8_G9iudTZzOKIj-7T-29" edge="1">
          <mxGeometry relative="1" as="geometry">
            <mxPoint x="140" y="400" as="sourcePoint" />
            <mxPoint x="-85" y="370" as="targetPoint" />
            <Array as="points">
              <mxPoint x="-85" y="400" />
              <mxPoint x="-140" y="400" />
            </Array>
          </mxGeometry>
        </mxCell>
        <mxCell id="JaL8_G9iudTZzOKIj-7T-37" value="Visszajelzés" style="edgeLabel;resizable=0;html=1;align=center;verticalAlign=middle;" parent="JaL8_G9iudTZzOKIj-7T-36" connectable="0" vertex="1">
          <mxGeometry relative="1" as="geometry">
            <mxPoint x="93" y="10" as="offset" />
          </mxGeometry>
        </mxCell>
        <mxCell id="JaL8_G9iudTZzOKIj-7T-38" value="L2&lt;span style=&quot;white-space: pre;&quot;&gt;&#x9;&lt;/span&gt;Felhasználók" style="html=1;dashed=0;whitespace=wrap;shape=mxgraph.dfd.dataStoreID;align=left;spacingLeft=3;points=[[0,0],[0.5,0],[1,0],[0,0.5],[1,0.5],[0,1],[0.5,1],[1,1]];" parent="1" vertex="1">
          <mxGeometry x="630" y="180" width="110" height="30" as="geometry" />
        </mxCell>
        <mxCell id="JaL8_G9iudTZzOKIj-7T-39" value="" style="endArrow=classic;html=1;rounded=0;" parent="1" edge="1">
          <mxGeometry relative="1" as="geometry">
            <mxPoint x="210" y="260" as="sourcePoint" />
            <mxPoint x="210" y="300" as="targetPoint" />
          </mxGeometry>
        </mxCell>
        <mxCell id="JaL8_G9iudTZzOKIj-7T-40" value="Sikertelen" style="edgeLabel;resizable=0;html=1;align=center;verticalAlign=middle;" parent="JaL8_G9iudTZzOKIj-7T-39" connectable="0" vertex="1">
          <mxGeometry relative="1" as="geometry">
            <mxPoint x="32" as="offset" />
          </mxGeometry>
        </mxCell>
        <mxCell id="JaL8_G9iudTZzOKIj-7T-41" value="" style="group" parent="1" vertex="1" connectable="0">
          <mxGeometry x="620" y="240" width="140" height="80" as="geometry" />
        </mxCell>
        <mxCell id="JaL8_G9iudTZzOKIj-7T-42" value="" style="html=1;dashed=0;whitespace=wrap;rounded=0;sketch=0;strokeColor=#000000;align=left;" parent="JaL8_G9iudTZzOKIj-7T-41" vertex="1">
          <mxGeometry y="-10" width="140" height="90" as="geometry" />
        </mxCell>
        <mxCell id="JaL8_G9iudTZzOKIj-7T-43" value="4" style="text;html=1;resizable=0;autosize=1;align=center;verticalAlign=middle;points=[];fillColor=none;rounded=0;sketch=0;strokeColor=#000000;" parent="JaL8_G9iudTZzOKIj-7T-41" vertex="1">
          <mxGeometry y="-10" width="30" height="30" as="geometry" />
        </mxCell>
        <mxCell id="JaL8_G9iudTZzOKIj-7T-44" value="Könyvek böngészése" style="text;html=1;resizable=0;autosize=1;align=center;verticalAlign=middle;points=[];fillColor=none;strokeColor=none;rounded=0;sketch=0;" parent="JaL8_G9iudTZzOKIj-7T-41" vertex="1">
          <mxGeometry y="25" width="140" height="30" as="geometry" />
        </mxCell>
        <mxCell id="JaL8_G9iudTZzOKIj-7T-45" value="" style="rounded=0;whiteSpace=wrap;html=1;sketch=0;strokeColor=#000000;align=left;" parent="JaL8_G9iudTZzOKIj-7T-41" vertex="1">
          <mxGeometry x="30" y="-10" width="110" height="30" as="geometry" />
        </mxCell>
        <mxCell id="JaL8_G9iudTZzOKIj-7T-46" value="" style="dashed=0;aspect=fixed;verticalLabelPosition=bottom;verticalAlign=top;align=center;shape=mxgraph.gmdl.star;strokeColor=none;fillColor=#737373;shadow=0;sketch=0;" parent="JaL8_G9iudTZzOKIj-7T-41" vertex="1">
          <mxGeometry x="126" y="65" width="10" height="10" as="geometry" />
        </mxCell>
        <mxCell id="JaL8_G9iudTZzOKIj-7T-47" value="" style="endArrow=none;html=1;rounded=0;exitX=0.75;exitY=1;exitDx=0;exitDy=0;entryX=1;entryY=0.75;entryDx=0;entryDy=0;" parent="JaL8_G9iudTZzOKIj-7T-41" source="JaL8_G9iudTZzOKIj-7T-42" target="JaL8_G9iudTZzOKIj-7T-42" edge="1">
          <mxGeometry width="50" height="50" relative="1" as="geometry">
            <mxPoint x="-305" y="230" as="sourcePoint" />
            <mxPoint x="-270" y="205" as="targetPoint" />
          </mxGeometry>
        </mxCell>
        <mxCell id="JaL8_G9iudTZzOKIj-7T-48" value="" style="endArrow=classic;html=1;rounded=0;exitX=1;exitY=0.5;exitDx=0;exitDy=0;entryX=-0.033;entryY=0.856;entryDx=0;entryDy=0;entryPerimeter=0;" parent="1" source="JaL8_G9iudTZzOKIj-7T-20" target="JaL8_G9iudTZzOKIj-7T-43" edge="1">
          <mxGeometry width="50" height="50" relative="1" as="geometry">
            <mxPoint x="290" y="330" as="sourcePoint" />
            <mxPoint x="340" y="280" as="targetPoint" />
          </mxGeometry>
        </mxCell>
        <mxCell id="JaL8_G9iudTZzOKIj-7T-49" value="" style="group" parent="1" vertex="1" connectable="0">
          <mxGeometry x="620" y="360" width="140" height="80" as="geometry" />
        </mxCell>
        <mxCell id="JaL8_G9iudTZzOKIj-7T-50" value="" style="html=1;dashed=0;whitespace=wrap;rounded=0;sketch=0;strokeColor=#000000;align=left;" parent="JaL8_G9iudTZzOKIj-7T-49" vertex="1">
          <mxGeometry y="-10" width="140" height="90" as="geometry" />
        </mxCell>
        <mxCell id="JaL8_G9iudTZzOKIj-7T-51" value="5." style="text;html=1;resizable=0;autosize=1;align=center;verticalAlign=middle;points=[];fillColor=none;rounded=0;sketch=0;strokeColor=#000000;" parent="JaL8_G9iudTZzOKIj-7T-49" vertex="1">
          <mxGeometry y="-10" width="30" height="30" as="geometry" />
        </mxCell>
        <mxCell id="JaL8_G9iudTZzOKIj-7T-52" value="Könyvek, Műfajok,&lt;br&gt;Áruházak és&lt;br&gt;Készletek kezelése" style="text;html=1;resizable=0;autosize=1;align=center;verticalAlign=middle;points=[];fillColor=none;strokeColor=none;rounded=0;sketch=0;" parent="JaL8_G9iudTZzOKIj-7T-49" vertex="1">
          <mxGeometry x="5" y="15" width="130" height="60" as="geometry" />
        </mxCell>
        <mxCell id="JaL8_G9iudTZzOKIj-7T-53" value="" style="rounded=0;whiteSpace=wrap;html=1;sketch=0;strokeColor=#000000;align=left;" parent="JaL8_G9iudTZzOKIj-7T-49" vertex="1">
          <mxGeometry x="30" y="-10" width="110" height="30" as="geometry" />
        </mxCell>
        <mxCell id="JaL8_G9iudTZzOKIj-7T-54" value="" style="dashed=0;aspect=fixed;verticalLabelPosition=bottom;verticalAlign=top;align=center;shape=mxgraph.gmdl.star;strokeColor=none;fillColor=#737373;shadow=0;sketch=0;" parent="JaL8_G9iudTZzOKIj-7T-49" vertex="1">
          <mxGeometry x="125" y="65" width="10" height="10" as="geometry" />
        </mxCell>
        <mxCell id="JaL8_G9iudTZzOKIj-7T-55" value="" style="endArrow=none;html=1;rounded=0;exitX=1;exitY=0.75;exitDx=0;exitDy=0;entryX=0.75;entryY=1;entryDx=0;entryDy=0;" parent="JaL8_G9iudTZzOKIj-7T-49" source="JaL8_G9iudTZzOKIj-7T-50" target="JaL8_G9iudTZzOKIj-7T-50" edge="1">
          <mxGeometry width="50" height="50" relative="1" as="geometry">
            <mxPoint x="-315" y="100" as="sourcePoint" />
            <mxPoint x="-280" y="75" as="targetPoint" />
          </mxGeometry>
        </mxCell>
        <mxCell id="JaL8_G9iudTZzOKIj-7T-56" value="" style="endArrow=classic;html=1;rounded=0;exitX=1;exitY=0.75;exitDx=0;exitDy=0;entryX=0;entryY=0.5;entryDx=0;entryDy=0;" parent="1" source="JaL8_G9iudTZzOKIj-7T-20" target="JaL8_G9iudTZzOKIj-7T-50" edge="1">
          <mxGeometry width="50" height="50" relative="1" as="geometry">
            <mxPoint x="290" y="330" as="sourcePoint" />
            <mxPoint x="340" y="280" as="targetPoint" />
            <Array as="points">
              <mxPoint x="560" y="278" />
              <mxPoint x="560" y="395" />
            </Array>
          </mxGeometry>
        </mxCell>
        <mxCell id="JaL8_G9iudTZzOKIj-7T-57" value="" style="endArrow=none;html=1;rounded=0;exitX=1;exitY=0.829;exitDx=0;exitDy=0;entryX=0;entryY=0.5;entryDx=0;entryDy=0;exitPerimeter=0;startArrow=classic;startFill=1;endFill=0;" parent="1" source="JaL8_G9iudTZzOKIj-7T-9" target="JaL8_G9iudTZzOKIj-7T-38" edge="1">
          <mxGeometry relative="1" as="geometry">
            <mxPoint x="610" y="210" as="sourcePoint" />
            <mxPoint x="630" y="220" as="targetPoint" />
            <Array as="points">
              <mxPoint x="360" y="195" />
              <mxPoint x="540" y="195" />
            </Array>
          </mxGeometry>
        </mxCell>
        <mxCell id="JaL8_G9iudTZzOKIj-7T-59" value="" style="endArrow=classic;html=1;rounded=0;exitX=1;exitY=0.5;exitDx=0;exitDy=0;entryX=0;entryY=1;entryDx=0;entryDy=0;" parent="1" target="JaL8_G9iudTZzOKIj-7T-38" edge="1">
          <mxGeometry width="50" height="50" relative="1" as="geometry">
            <mxPoint x="511" y="223.25" as="sourcePoint" />
            <mxPoint x="620" y="224.25" as="targetPoint" />
            <Array as="points">
              <mxPoint x="550" y="223" />
              <mxPoint x="550" y="210" />
            </Array>
          </mxGeometry>
        </mxCell>
      </root>
    </mxGraphModel>
  </diagram>
</mxfile>
